<svg width="117" height="37" viewBox="0 0 117 37" fill="none" xmlns="http://www.w3.org/2000/svg">
<path d="M4.48144 32.833H104.664L112.519 3.47861H12.3359L4.48144 32.833ZM107.41 36.0761H0L9.59046 0.235504H117L107.41 36.0761Z" fill="white"/>
<path d="M17.4559 17.4924H20.7798C22.1325 17.4924 23.0145 16.9071 23.3684 15.5026C23.7076 14.1565 23.1207 13.5712 21.768 13.5712H18.4441L17.4559 17.4924ZM16.0101 11.1912H23.4498C25.9234 11.1912 27.0513 12.9272 26.5203 15.0345C26.1073 16.6731 25.1405 17.9023 23.4568 18.5263L23.4469 18.5655C24.8363 18.9557 24.8931 20.4187 24.6355 21.8232C24.4723 22.7015 24.0402 24.3404 24.3846 25.1205H21.3506C21.2047 24.2425 21.5825 22.8963 21.7081 21.7845C21.8642 20.3215 21.4659 19.6773 19.9394 19.6773H16.9056L15.5339 25.1205H12.4999L16.0101 11.1912Z" fill="white"/>
<path d="M39.4898 19.8532C38.5409 23.6186 35.8758 25.4523 32.1848 25.4523C28.4746 25.4523 26.7675 23.6381 27.7211 19.8532L29.9038 11.1912H32.9375L30.7551 19.8532C30.3716 21.3747 30.3794 22.8772 32.834 22.8772C34.9979 22.8772 35.9349 21.9215 36.4558 19.8532L38.6385 11.1912H41.6722L39.4898 19.8532Z" fill="white"/>
<path d="M47.1867 25.1205H43.7663L42.793 11.1912H45.9235L46.5282 20.9847H46.567L52.1459 11.1912H55.2767L47.1867 25.1205Z" fill="white"/>
<path d="M56.455 11.1912H66.7742L66.1253 13.7665H58.8401L58.0879 16.7513H64.7742L64.1747 19.1313H57.4882L56.628 22.5451H64.068L63.4191 25.1205H52.9451L56.455 11.1912Z" fill="white"/>
<path d="M68.9767 11.1912H71.9915L75.3955 20.5361H75.434L77.789 11.1912H80.6294L77.1195 25.1205H74.0855L70.6963 15.7953H70.6575L68.3078 25.1205H65.467L68.9767 11.1912Z" fill="white"/>
<path d="M85.7003 13.7665H81.5649L82.2138 11.1912H93.5184L92.8697 13.7665H88.7343L85.8733 25.1205H82.8393L85.7003 13.7665Z" fill="white"/>
<path d="M94.8258 20.497C94.3585 22.3504 95.6069 23.072 97.2299 23.072C98.2928 23.072 99.9946 22.7601 100.354 21.336C100.732 19.8338 98.7281 19.5802 96.8368 19.0337C94.926 18.4877 93.0599 17.6876 93.7187 15.0733C94.4366 12.2252 97.4474 10.8596 99.9403 10.8596C102.819 10.8596 105.147 12.1275 104.336 15.3466H101.399C101.725 13.6687 100.654 13.2393 99.2053 13.2393C98.2389 13.2393 97.015 13.6492 96.7199 14.8197C96.4496 15.8928 97.0722 16.0292 100.305 16.9267C101.246 17.1803 104.176 17.8242 103.38 20.9848C102.735 23.5404 100.263 25.4523 96.5141 25.4523C93.4609 25.4523 90.9844 23.9306 91.8883 20.497H94.8258Z" fill="white"/>
</svg>
